<svg width="66" height="52" viewBox="0 0 66 52" fill="none" xmlns="http://www.w3.org/2000/svg">
<g clip-path="url(#clip0_1_23)">
<path d="M58.163 25.3122C57.5577 25.3122 57.0074 25.2021 56.4571 25.037H56.4021C56.3471 25.037 56.2921 24.982 56.182 24.982C56.0169 24.927 55.8518 24.8169 55.6317 24.7069L55.5767 24.6519C54.8614 24.2667 54.2011 23.7164 53.7058 23.0561C52.1651 21.0201 52.1651 18.2138 53.7058 16.2328C54.3111 15.4074 55.1915 14.8021 56.127 14.4169L56.237 14.3619C56.5122 14.2519 56.7323 14.1968 56.8974 14.1418L57.0624 14.0868C57.4476 14.0317 57.8328 13.9767 58.218 13.9767C60.5291 13.9767 62.455 13.2614 63.7757 11.9407C64.9862 10.6751 65.6466 8.96931 65.6466 6.98836V0H51.5598V4.67725C51.5598 5.55767 51.5598 6.49312 51.5598 7.37354C51.5598 9.18942 50.5143 11.7206 48.5884 12.3259C47.3778 12.7111 45.837 12.1058 44.5714 12.2709C43.5259 12.381 42.4804 12.7661 41.6 13.3164C39.7841 14.472 38.5735 16.3979 38.2984 18.5439C38.1884 19.3693 38.2434 19.9746 38.2984 20.4148C38.3534 20.9101 38.3534 21.0751 38.1884 21.5704C37.8582 22.5608 37.0878 23.4413 36.0974 24.1016C35.1069 24.7619 33.9513 25.1471 32.9058 25.1471H32.7958H32.6857C31.5852 25.1471 30.4847 24.7619 29.4942 24.1016C28.5037 23.4413 27.7884 22.5058 27.4032 21.5704C27.2381 21.0751 27.2381 20.9101 27.2931 20.4148C27.3481 19.9746 27.4032 19.3693 27.2931 18.5439C27.073 16.3979 25.8074 14.472 23.9915 13.3164C23.1111 12.7661 22.0656 12.381 21.0201 12.2709C19.7545 12.1058 18.2138 12.7111 17.0032 12.3259C15.0772 11.6656 14.0317 9.18942 14.0317 7.37354C14.0317 6.49312 14.0317 5.55767 14.0317 4.67725V0H0.0550265V7.09841C0.0550265 9.07936 0.660317 10.7852 1.92593 12.0508C3.24656 13.3714 5.17249 14.0868 7.4836 14.0868C7.86878 14.0868 8.25397 14.1418 8.63915 14.1968L8.80423 14.2519C8.96931 14.2519 9.18942 14.3619 9.46455 14.472L9.5746 14.527C10.5101 14.9122 11.3354 15.5175 11.9958 16.3429C13.5365 18.3238 13.5365 21.1302 11.9958 23.1661C11.5005 23.8265 10.8402 24.3767 10.1249 24.7619H9.95979C9.73968 24.872 9.5746 24.927 9.40952 25.037C9.3545 25.037 9.24444 25.0921 9.18942 25.0921H9.13439C8.58413 25.2571 7.97884 25.3672 7.42857 25.3672C2.97143 25.3122 0 28.0635 0 32.1354C0 35.327 1.43069 36.9778 2.64127 37.8032C4.12698 38.7936 5.94286 39.0688 7.64868 39.2339H7.75873C8.19894 39.2889 8.58413 39.3989 9.02434 39.564L9.24444 39.619H9.29947C10.455 40.0042 11.4455 40.8296 11.9958 41.8751C12.3259 42.4804 12.546 43.2508 12.6561 44.0762C12.7111 44.4063 12.7111 44.7365 12.7111 45.0116C12.7111 45.2317 12.7661 45.5069 12.7661 45.782V51.8899H26.6878V44.7915C26.6878 42.9206 25.9725 41.1598 24.6519 39.8392C24.5968 39.7841 24.5418 39.7291 24.4868 39.6741C24.3767 39.564 24.2667 39.509 24.2116 39.454L24.1566 39.3989C22.6709 38.0783 20.6899 38.0783 19.2593 38.0233C19.0392 38.0233 18.819 38.0233 18.5989 38.0233L18.4889 37.9683L18.0487 37.8582L17.6085 37.7481L17.1132 37.5831C16.618 37.363 16.1778 37.0878 15.7376 36.7026L15.6275 36.6476C14.3069 35.4921 13.7016 34.0614 13.6466 32.3005C13.6466 31.0349 14.0317 29.8243 14.8021 28.8339C15.5725 27.8434 16.618 27.128 17.7735 26.7979C18.9841 26.4677 21.1852 26.4127 22.2307 26.7979C24.1566 27.4032 25.5873 29.219 25.6974 31.255C25.6974 31.4201 25.6974 31.5852 25.6974 31.8053C25.6974 32.4106 25.6423 33.236 25.9725 34.2815C26.963 37.1429 29.6593 39.1238 32.6857 39.1238C35.7672 39.1238 38.4635 37.1429 39.3989 34.2815C39.7291 33.236 39.7291 32.4106 39.6741 31.8053C39.6741 31.5852 39.6741 31.4201 39.6741 31.255C39.7841 29.219 41.1598 27.4032 43.1407 26.7979C44.1862 26.4677 46.4423 26.4677 47.5979 26.7979C48.7534 27.128 49.854 27.8984 50.5693 28.8339C51.3397 29.8243 51.7249 31.0349 51.7249 32.3005C51.7249 34.0614 51.0645 35.4921 49.7439 36.6476L49.6339 36.7026C49.2487 37.0328 48.7534 37.363 48.2582 37.5831L47.763 37.7481L47.3228 37.8582L47.1577 37.9683L46.9376 38.0233C46.7175 38.0233 46.4974 38.0233 46.2772 38.0233C44.8466 38.0233 42.8656 38.0783 41.3799 39.3989L41.2698 39.454C41.2148 39.509 41.1048 39.619 40.9947 39.6741C40.9397 39.7291 40.8847 39.7841 40.8296 39.8392C39.509 41.1598 38.7937 42.9757 38.7937 44.7915V52H52.7153V45.8921C52.7153 45.6169 52.7704 45.3418 52.7704 45.1217C52.7704 44.7915 52.8254 44.5164 52.8254 44.1862C52.9354 43.3608 53.1556 42.5905 53.4857 41.9852C54.091 40.9397 55.0815 40.1143 56.182 39.7291H56.237L56.4571 39.6741C56.8974 39.509 57.2825 39.3989 57.7228 39.3439H57.8328C59.5386 39.1788 61.3545 38.9037 62.8402 37.9132C64.0508 37.0878 65.4815 35.437 65.4815 32.2455C65.5915 28.0635 62.6201 25.3122 58.163 25.3122Z" fill="#FFDA34"/>
</g>
<defs>
<clipPath id="clip0_1_23">
<rect width="65.5915" height="52" fill="white"/>
</clipPath>
</defs>
</svg>
